<?xml version="1.0" encoding="utf-8" ?>
<!DOCTYPE svg PUBLIC "-//W3C//DTD SVG 1.1//EN" "http://www.w3.org/Graphics/SVG/1.1/DTD/svg11.dtd">
<svg height="484" version="1.1" width="1161" xmlns="http://www.w3.org/2000/svg">
<text font-family="Dialog" font-size="12" x="19" y="266">
Administrador</text>
<ellipse cx="61" cy="215" fill="#000000" rx="8.0" ry="7.5" stroke="#000000" stroke-width="1"/>
<ellipse cx="61" cy="215" fill="#ffffff" rx="7.0" ry="6.5" stroke="#ffffff" stroke-width="1"/>
<line fill="#000000" stroke="#000000" stroke-width="1" x1="61" x2="61" y1="223" y2="238"/>
<line fill="#000000" stroke="#000000" stroke-width="1" x1="51" x2="71" y1="228" y2="228"/>
<line fill="#000000" stroke="#000000" stroke-width="1" x1="61" x2="56" y1="238" y2="253"/>
<line fill="#000000" stroke="#000000" stroke-width="1" x1="61" x2="66" y1="238" y2="253"/>
<ellipse cx="328" cy="136" fill="#000000" rx="82.0" ry="26.0" stroke="#000000" stroke-width="1"/>
<ellipse cx="328" cy="136" fill="#ffffff" rx="81.0" ry="25.0" stroke="#ffffff" stroke-width="1"/>
<text font-family="Dialog" font-size="12" x="263" y="137">
Gerenciar Laboratório</text>
<ellipse cx="172" cy="62" fill="#000000" rx="70.0" ry="24.0" stroke="#000000" stroke-width="1"/>
<ellipse cx="172" cy="62" fill="#ffffff" rx="69.0" ry="23.0" stroke="#ffffff" stroke-width="1"/>
<text font-family="Dialog" font-size="12" x="117" y="63">
Incluir Laboratório</text>
<ellipse cx="340" cy="38" fill="#000000" rx="70.0" ry="24.0" stroke="#000000" stroke-width="1"/>
<ellipse cx="340" cy="38" fill="#ffffff" rx="69.0" ry="23.0" stroke="#ffffff" stroke-width="1"/>
<text font-family="Dialog" font-size="12" x="286" y="39">
Editar Laboratório</text>
<ellipse cx="555" cy="73" fill="#000000" rx="85.0" ry="27.0" stroke="#000000" stroke-width="1"/>
<ellipse cx="555" cy="73" fill="#ffffff" rx="84.0" ry="26.0" stroke="#ffffff" stroke-width="1"/>
<text font-family="Dialog" font-size="12" x="487" y="74">
Desabilitar Laboratório</text>
<text font-family="Dialog" font-size="12" x="1090" y="250">
Usuário</text>
<ellipse cx="1112" cy="199" fill="#000000" rx="8.0" ry="7.5" stroke="#000000" stroke-width="1"/>
<ellipse cx="1112" cy="199" fill="#ffffff" rx="7.0" ry="6.5" stroke="#ffffff" stroke-width="1"/>
<line fill="#000000" stroke="#000000" stroke-width="1" x1="1112" x2="1112" y1="207" y2="222"/>
<line fill="#000000" stroke="#000000" stroke-width="1" x1="1102" x2="1122" y1="212" y2="212"/>
<line fill="#000000" stroke="#000000" stroke-width="1" x1="1112" x2="1107" y1="222" y2="237"/>
<line fill="#000000" stroke="#000000" stroke-width="1" x1="1112" x2="1117" y1="222" y2="237"/>
<ellipse cx="777" cy="271" fill="#000000" rx="75.0" ry="25.0" stroke="#000000" stroke-width="1"/>
<ellipse cx="777" cy="271" fill="#ffffff" rx="74.0" ry="24.0" stroke="#ffffff" stroke-width="1"/>
<text font-family="Dialog" font-size="12" x="719" y="272">
Gerenciar Reservas</text>
<ellipse cx="936" cy="229" fill="#000000" rx="66.0" ry="23.0" stroke="#000000" stroke-width="1"/>
<ellipse cx="936" cy="229" fill="#ffffff" rx="65.0" ry="22.0" stroke="#ffffff" stroke-width="1"/>
<text font-family="Dialog" font-size="12" x="891" y="230">
Incluir Reserva</text>
<ellipse cx="796" cy="164" fill="#000000" rx="62.0" ry="22.0" stroke="#000000" stroke-width="1"/>
<ellipse cx="796" cy="164" fill="#ffffff" rx="61.0" ry="21.0" stroke="#ffffff" stroke-width="1"/>
<text font-family="Dialog" font-size="12" x="752" y="165">
Editar Reserva</text>
<ellipse cx="586" cy="200" fill="#000000" rx="84.0" ry="26.0" stroke="#000000" stroke-width="1"/>
<ellipse cx="586" cy="200" fill="#ffffff" rx="83.0" ry="25.0" stroke="#ffffff" stroke-width="1"/>
<text font-family="Dialog" font-size="12" x="519" y="201">
Alterar Status Reserva</text>
<polyline fill="none" points="70,215 269,154" stroke="#000000" stroke-width="1"/>
<polyline fill="none" points="1102,212 999,222" stroke="#000000" stroke-width="1"/>
<polyline fill="none" points="855,170 1103,196" stroke="#000000" stroke-width="1"/>
<polyline fill="none" points="71,228 703,266" stroke="#000000" stroke-width="1"/>
<ellipse cx="408" cy="446" fill="#000000" rx="74.0" ry="24.0" stroke="#000000" stroke-width="1"/>
<ellipse cx="408" cy="446" fill="#ffffff" rx="73.0" ry="23.0" stroke="#ffffff" stroke-width="1"/>
<text font-family="Dialog" font-size="12" x="351" y="447">
Gerenciar Usuários</text>
<ellipse cx="418" cy="363" fill="#000000" rx="60.0" ry="21.0" stroke="#000000" stroke-width="1"/>
<ellipse cx="418" cy="363" fill="#ffffff" rx="59.0" ry="20.0" stroke="#ffffff" stroke-width="1"/>
<text font-family="Dialog" font-size="12" x="374" y="364">
Incluir Usuário</text>
<ellipse cx="578" cy="379" fill="#000000" rx="60.0" ry="21.0" stroke="#000000" stroke-width="1"/>
<ellipse cx="578" cy="379" fill="#ffffff" rx="59.0" ry="20.0" stroke="#ffffff" stroke-width="1"/>
<text font-family="Dialog" font-size="12" x="535" y="380">
Editar Usuário</text>
<ellipse cx="188" cy="389" fill="#000000" rx="70.0" ry="23.0" stroke="#000000" stroke-width="1"/>
<ellipse cx="188" cy="389" fill="#ffffff" rx="69.0" ry="22.0" stroke="#ffffff" stroke-width="1"/>
<text font-family="Dialog" font-size="12" x="135" y="390">
Desativar Usuário</text>
<polyline fill="none" points="1107,260 628,367" stroke="#000000" stroke-width="1"/>
<polyline fill="none" points="1107,260 473,354" stroke="#000000" stroke-width="1"/>
<polyline fill="none" points="66,276 367,425" stroke="#000000" stroke-width="1"/>
<line fill="#000000" stroke="#000000" stroke-width="1" x1="213" x2="217" y1="81" y2="83"/>
<line fill="#000000" stroke="#000000" stroke-width="1" x1="222" x2="226" y1="85" y2="87"/>
<line fill="#000000" stroke="#000000" stroke-width="1" x1="231" x2="235" y1="89" y2="91"/>
<line fill="#000000" stroke="#000000" stroke-width="1" x1="240" x2="244" y1="94" y2="96"/>
<line fill="#000000" stroke="#000000" stroke-width="1" x1="249" x2="253" y1="98" y2="100"/>
<line fill="#000000" stroke="#000000" stroke-width="1" x1="258" x2="262" y1="102" y2="104"/>
<line fill="#000000" stroke="#000000" stroke-width="1" x1="267" x2="272" y1="107" y2="109"/>
<line fill="#000000" stroke="#000000" stroke-width="1" x1="276" x2="281" y1="111" y2="113"/>
<line fill="#000000" stroke="#000000" stroke-width="1" x1="268" x2="282" y1="115" y2="114"/>
<line fill="#000000" stroke="#000000" stroke-width="1" x1="274" x2="282" y1="102" y2="114"/>
<text font-family="Dialog" font-size="12" x="165" y="112">
&lt;&lt;extend&gt;&gt;</text>
<line fill="#000000" stroke="#000000" stroke-width="1" x1="337" x2="337" y1="61" y2="66"/>
<line fill="#000000" stroke="#000000" stroke-width="1" x1="336" x2="336" y1="71" y2="76"/>
<line fill="#000000" stroke="#000000" stroke-width="1" x1="335" x2="334" y1="81" y2="86"/>
<line fill="#000000" stroke="#000000" stroke-width="1" x1="334" x2="333" y1="91" y2="96"/>
<line fill="#000000" stroke="#000000" stroke-width="1" x1="333" x2="332" y1="101" y2="106"/>
<line fill="#000000" stroke="#000000" stroke-width="1" x1="325" x2="331" y1="97" y2="110"/>
<line fill="#000000" stroke="#000000" stroke-width="1" x1="339" x2="331" y1="98" y2="110"/>
<text font-family="Dialog" font-size="12" x="337" y="89">
&lt;&lt;extend&gt;&gt;</text>
<line fill="#000000" stroke="#000000" stroke-width="1" x1="490" x2="486" y1="90" y2="91"/>
<line fill="#000000" stroke="#000000" stroke-width="1" x1="481" x2="476" y1="92" y2="94"/>
<line fill="#000000" stroke="#000000" stroke-width="1" x1="471" x2="466" y1="95" y2="96"/>
<line fill="#000000" stroke="#000000" stroke-width="1" x1="461" x2="457" y1="98" y2="99"/>
<line fill="#000000" stroke="#000000" stroke-width="1" x1="452" x2="447" y1="100" y2="102"/>
<line fill="#000000" stroke="#000000" stroke-width="1" x1="442" x2="437" y1="103" y2="104"/>
<line fill="#000000" stroke="#000000" stroke-width="1" x1="432" x2="427" y1="106" y2="107"/>
<line fill="#000000" stroke="#000000" stroke-width="1" x1="423" x2="418" y1="108" y2="110"/>
<line fill="#000000" stroke="#000000" stroke-width="1" x1="413" x2="408" y1="111" y2="112"/>
<line fill="#000000" stroke="#000000" stroke-width="1" x1="403" x2="398" y1="114" y2="115"/>
<line fill="#000000" stroke="#000000" stroke-width="1" x1="393" x2="389" y1="116" y2="118"/>
<line fill="#000000" stroke="#000000" stroke-width="1" x1="398" x2="389" y1="108" y2="118"/>
<line fill="#000000" stroke="#000000" stroke-width="1" x1="402" x2="389" y1="121" y2="118"/>
<text font-family="Dialog" font-size="12" x="430" y="121">
&lt;&lt;extend&gt;&gt;</text>
<line fill="#000000" stroke="#000000" stroke-width="1" x1="640" x2="644" y1="219" y2="220"/>
<line fill="#000000" stroke="#000000" stroke-width="1" x1="649" x2="654" y1="222" y2="224"/>
<line fill="#000000" stroke="#000000" stroke-width="1" x1="658" x2="663" y1="226" y2="227"/>
<line fill="#000000" stroke="#000000" stroke-width="1" x1="668" x2="672" y1="229" y2="231"/>
<line fill="#000000" stroke="#000000" stroke-width="1" x1="677" x2="682" y1="233" y2="234"/>
<line fill="#000000" stroke="#000000" stroke-width="1" x1="686" x2="691" y1="236" y2="238"/>
<line fill="#000000" stroke="#000000" stroke-width="1" x1="696" x2="700" y1="240" y2="242"/>
<line fill="#000000" stroke="#000000" stroke-width="1" x1="705" x2="710" y1="243" y2="245"/>
<line fill="#000000" stroke="#000000" stroke-width="1" x1="714" x2="719" y1="247" y2="249"/>
<line fill="#000000" stroke="#000000" stroke-width="1" x1="724" x2="727" y1="250" y2="252"/>
<line fill="#000000" stroke="#000000" stroke-width="1" x1="713" x2="727" y1="254" y2="252"/>
<line fill="#000000" stroke="#000000" stroke-width="1" x1="718" x2="727" y1="241" y2="252"/>
<text font-family="Dialog" font-size="12" x="688" y="238">
&lt;&lt;extend&gt;&gt;</text>
<line fill="#000000" stroke="#000000" stroke-width="1" x1="791" x2="791" y1="185" y2="190"/>
<line fill="#000000" stroke="#000000" stroke-width="1" x1="790" x2="789" y1="195" y2="200"/>
<line fill="#000000" stroke="#000000" stroke-width="1" x1="788" x2="787" y1="205" y2="210"/>
<line fill="#000000" stroke="#000000" stroke-width="1" x1="787" x2="786" y1="215" y2="220"/>
<line fill="#000000" stroke="#000000" stroke-width="1" x1="785" x2="784" y1="225" y2="230"/>
<line fill="#000000" stroke="#000000" stroke-width="1" x1="783" x2="782" y1="235" y2="240"/>
<line fill="#000000" stroke="#000000" stroke-width="1" x1="782" x2="781" y1="245" y2="246"/>
<line fill="#000000" stroke="#000000" stroke-width="1" x1="776" x2="781" y1="233" y2="246"/>
<line fill="#000000" stroke="#000000" stroke-width="1" x1="789" x2="781" y1="235" y2="246"/>
<text font-family="Dialog" font-size="12" x="701" y="206">
&lt;&lt;extend&gt;&gt;</text>
<line fill="#000000" stroke="#000000" stroke-width="1" x1="882" x2="878" y1="242" y2="243"/>
<line fill="#000000" stroke="#000000" stroke-width="1" x1="873" x2="868" y1="244" y2="245"/>
<line fill="#000000" stroke="#000000" stroke-width="1" x1="863" x2="858" y1="247" y2="248"/>
<line fill="#000000" stroke="#000000" stroke-width="1" x1="853" x2="848" y1="249" y2="251"/>
<line fill="#000000" stroke="#000000" stroke-width="1" x1="843" x2="838" y1="252" y2="253"/>
<line fill="#000000" stroke="#000000" stroke-width="1" x1="843" x2="834" y1="245" y2="255"/>
<line fill="#000000" stroke="#000000" stroke-width="1" x1="847" x2="834" y1="258" y2="255"/>
<text font-family="Dialog" font-size="12" x="850" y="265">
&lt;&lt;extend&gt;&gt;</text>
<line fill="#000000" stroke="#000000" stroke-width="1" x1="243" x2="247" y1="403" y2="404"/>
<line fill="#000000" stroke="#000000" stroke-width="1" x1="252" x2="257" y1="405" y2="406"/>
<line fill="#000000" stroke="#000000" stroke-width="1" x1="262" x2="267" y1="407" y2="409"/>
<line fill="#000000" stroke="#000000" stroke-width="1" x1="272" x2="277" y1="410" y2="411"/>
<line fill="#000000" stroke="#000000" stroke-width="1" x1="281" x2="286" y1="412" y2="414"/>
<line fill="#000000" stroke="#000000" stroke-width="1" x1="291" x2="296" y1="415" y2="416"/>
<line fill="#000000" stroke="#000000" stroke-width="1" x1="301" x2="306" y1="417" y2="418"/>
<line fill="#000000" stroke="#000000" stroke-width="1" x1="311" x2="315" y1="420" y2="421"/>
<line fill="#000000" stroke="#000000" stroke-width="1" x1="320" x2="325" y1="422" y2="423"/>
<line fill="#000000" stroke="#000000" stroke-width="1" x1="330" x2="335" y1="425" y2="426"/>
<line fill="#000000" stroke="#000000" stroke-width="1" x1="340" x2="345" y1="427" y2="428"/>
<line fill="#000000" stroke="#000000" stroke-width="1" x1="336" x2="350" y1="433" y2="430"/>
<line fill="#000000" stroke="#000000" stroke-width="1" x1="340" x2="350" y1="420" y2="430"/>
<text font-family="Dialog" font-size="12" x="218" y="431">
&lt;&lt;extend&gt;&gt;</text>
<line fill="#000000" stroke="#000000" stroke-width="1" x1="415" x2="415" y1="383" y2="388"/>
<line fill="#000000" stroke="#000000" stroke-width="1" x1="414" x2="414" y1="393" y2="398"/>
<line fill="#000000" stroke="#000000" stroke-width="1" x1="413" x2="412" y1="403" y2="408"/>
<line fill="#000000" stroke="#000000" stroke-width="1" x1="412" x2="411" y1="413" y2="418"/>
<line fill="#000000" stroke="#000000" stroke-width="1" x1="404" x2="410" y1="409" y2="422"/>
<line fill="#000000" stroke="#000000" stroke-width="1" x1="418" x2="410" y1="410" y2="422"/>
<text font-family="Dialog" font-size="12" x="326" y="398">
&lt;&lt;extend&gt;&gt;</text>
<line fill="#000000" stroke="#000000" stroke-width="1" x1="537" x2="533" y1="394" y2="395"/>
<line fill="#000000" stroke="#000000" stroke-width="1" x1="528" x2="524" y1="397" y2="399"/>
<line fill="#000000" stroke="#000000" stroke-width="1" x1="519" x2="514" y1="401" y2="403"/>
<line fill="#000000" stroke="#000000" stroke-width="1" x1="510" x2="505" y1="405" y2="406"/>
<line fill="#000000" stroke="#000000" stroke-width="1" x1="500" x2="496" y1="408" y2="410"/>
<line fill="#000000" stroke="#000000" stroke-width="1" x1="491" x2="486" y1="412" y2="414"/>
<line fill="#000000" stroke="#000000" stroke-width="1" x1="482" x2="477" y1="416" y2="418"/>
<line fill="#000000" stroke="#000000" stroke-width="1" x1="472" x2="468" y1="419" y2="421"/>
<line fill="#000000" stroke="#000000" stroke-width="1" x1="463" x2="458" y1="423" y2="425"/>
<line fill="#000000" stroke="#000000" stroke-width="1" x1="462" x2="454" y1="416" y2="427"/>
<line fill="#000000" stroke="#000000" stroke-width="1" x1="467" x2="454" y1="429" y2="427"/>
<text font-family="Dialog" font-size="12" x="508" y="420">
&lt;&lt;extend&gt;&gt;</text>
</svg>
