<?xml version="1.0" encoding="utf-8" ?>
<!DOCTYPE svg PUBLIC "-//W3C//DTD SVG 1.1//EN" "http://www.w3.org/Graphics/SVG/1.1/DTD/svg11.dtd">
<svg height="628" version="1.1" width="1044" xmlns="http://www.w3.org/2000/svg">
<rect fill="#ffffff" height="216" stroke="#ffffff" stroke-width="1" width="232" x="14" y="382"/>
<rect fill="none" height="216" stroke="#000000" stroke-width="1" width="232" x="14" y="382"/>
<text font-family="Dialog" font-size="12" x="97" y="395">
Laboratory</text>
<rect fill="#000000" height="1" stroke="#000000" stroke-width="1" width="232" x="14" y="405"/>
<text font-family="Dialog" font-size="12" x="18" y="419">
id : Integer</text>
<text font-family="Dialog" font-size="12" x="18" y="435">
name : String</text>
<text font-family="Dialog" font-size="12" x="18" y="451">
n_computers : Integer</text>
<rect fill="#000000" height="1" stroke="#000000" stroke-width="1" width="232" x="14" y="517"/>
<text font-family="Dialog" font-size="12" x="18" y="531">
getName() : String</text>
<rect fill="#ffffff" height="272" stroke="#ffffff" stroke-width="1" width="264" x="766" y="342"/>
<rect fill="none" height="272" stroke="#000000" stroke-width="1" width="264" x="766" y="342"/>
<text font-family="Dialog" font-size="12" x="874" y="355">
Reserve</text>
<rect fill="#000000" height="1" stroke="#000000" stroke-width="1" width="264" x="766" y="365"/>
<text font-family="Dialog" font-size="12" x="770" y="379">
id : Integer</text>
<text font-family="Dialog" font-size="12" x="770" y="395">
date : Date</text>
<text font-family="Dialog" font-size="12" x="770" y="411">
initial_time : Time</text>
<text font-family="Dialog" font-size="12" x="770" y="427">
end_time : Time</text>
<text font-family="Dialog" font-size="12" x="770" y="443">
status : String</text>
<text font-family="Dialog" font-size="12" x="770" y="459">
obs : Text</text>
<text font-family="Dialog" font-size="12" x="770" y="475">
created_at : Datetime</text>
<text font-family="Dialog" font-size="12" x="770" y="491">
updated_at : Datetime</text>
<rect fill="#000000" height="1" stroke="#000000" stroke-width="1" width="264" x="766" y="545"/>
<text font-family="Dialog" font-size="12" x="770" y="559">
getStatus() : String</text>
<polyline fill="none" points="245,534 766,534" stroke="#000000" stroke-width="1"/>
<text font-family="Dialog" font-size="12" x="460" y="523">
Contém</text>
<text font-family="Dialog" font-size="12" x="256" y="529">
1</text>
<text font-family="Dialog" font-size="12" x="730" y="529">
0..*</text>
<rect fill="#ffffff" height="352" stroke="#ffffff" stroke-width="1" width="304" x="350" y="14"/>
<rect fill="none" height="352" stroke="#000000" stroke-width="1" width="304" x="350" y="14"/>
<text font-family="Dialog" font-size="12" x="488" y="27">
User</text>
<rect fill="#000000" height="1" stroke="#000000" stroke-width="1" width="304" x="350" y="37"/>
<text font-family="Dialog" font-size="12" x="354" y="51">
id : uuid</text>
<text font-family="Dialog" font-size="12" x="354" y="67">
first_name : String</text>
<text font-family="Dialog" font-size="12" x="354" y="83">
last_name : String</text>
<text font-family="Dialog" font-size="12" x="354" y="99">
email : String</text>
<text font-family="Dialog" font-size="12" x="354" y="115">
is_staff : Boolean</text>
<text font-family="Dialog" font-size="12" x="354" y="131">
is_active : Boolean</text>
<text font-family="Dialog" font-size="12" x="354" y="147">
date_joined : Datetime</text>
<text font-family="Dialog" font-size="12" x="354" y="163">
type_user : String</text>
<text font-family="Dialog" font-size="12" x="354" y="179">
email_confirm : Boolean</text>
<text font-family="Dialog" font-size="12" x="354" y="195">
share_email : Boolean</text>
<text font-family="Dialog" font-size="12" x="354" y="211">
share_phone : Boolean</text>
<text font-family="Dialog" font-size="12" x="354" y="227">
phone_number : String</text>
<text font-family="Dialog" font-size="12" x="354" y="243">
description : Text</text>
<rect fill="#000000" height="1" stroke="#000000" stroke-width="1" width="304" x="350" y="297"/>
<text font-family="Dialog" font-size="12" x="354" y="311">
getFullName()</text>
<polyline fill="none" points="510,365 510,478 766,478" stroke="#000000" stroke-width="1"/>
<text font-family="Dialog" font-size="12" x="550" y="468">
Solicita</text>
<text font-family="Dialog" font-size="12" x="523" y="392">
1</text>
<text font-family="Dialog" font-size="12" x="740" y="473">
0..*</text>
</svg>
